<?xml version="1.0" encoding="UTF-8" standalone="no"?>
<!-- Created with Inkscape (http://www.inkscape.org/) -->

<svg
   xmlns:dc="http://purl.org/dc/elements/1.1/"
   xmlns:cc="http://creativecommons.org/ns#"
   xmlns:rdf="http://www.w3.org/1999/02/22-rdf-syntax-ns#"
   xmlns:svg="http://www.w3.org/2000/svg"
   xmlns="http://www.w3.org/2000/svg"
   xmlns:sodipodi="http://sodipodi.sourceforge.net/DTD/sodipodi-0.dtd"
   xmlns:inkscape="http://www.inkscape.org/namespaces/inkscape"
   width="210mm"
   height="297mm"
   viewBox="0 0 210 297"
   version="1.1"
   id="svg72"
   inkscape:version="0.92.2 (5c3e80d, 2017-08-06)"
   sodipodi:docname="logo1.svg">
  <defs
     id="defs66" />
  <sodipodi:namedview
     id="base"
     pagecolor="#ffffff"
     bordercolor="#666666"
     borderopacity="1.0"
     inkscape:pageopacity="0.0"
     inkscape:pageshadow="2"
     inkscape:zoom="0.47"
     inkscape:cx="400"
     inkscape:cy="560"
     inkscape:document-units="mm"
     inkscape:current-layer="layer1"
     showgrid="false"
     inkscape:measure-start="0,0"
     inkscape:measure-end="0,0"
     inkscape:window-width="1280"
     inkscape:window-height="737"
     inkscape:window-x="-8"
     inkscape:window-y="-8"
     inkscape:window-maximized="1" />
  <metadata
     id="metadata69">
    <rdf:RDF>
      <cc:Work
         rdf:about="">
        <dc:format>image/svg+xml</dc:format>
        <dc:type
           rdf:resource="http://purl.org/dc/dcmitype/StillImage" />
        <dc:title></dc:title>
      </cc:Work>
    </rdf:RDF>
  </metadata>
  <g
     inkscape:label="Capa 1"
     inkscape:groupmode="layer"
     id="layer1">
    <flowRoot
       xml:space="preserve"
       id="flowRoot76"
       style="fill:black;fill-opacity:1;stroke:none;font-family:sans-serif;font-style:normal;font-weight:normal;font-size:40px;line-height:1.25;letter-spacing:0px;word-spacing:0px"><flowRegion
         id="flowRegion78"><rect
           id="rect80"
           width="165.95744"
           height="655.31915"
           x="1253.1915"
           y="124.64735" /></flowRegion><flowPara
         id="flowPara82"></flowPara></flowRoot>    <path
       style="fill:#ff0000;stroke-width:0.26458332"
       id="path84"
       d="m 30.183465,191.92441 c 0.02805,1.45823 -0.169902,2.89899 -0.343355,4.34262 -0.0912,1.37421 -0.47425,2.69656 -0.907055,3.99585 -0.449098,1.22746 -0.768834,2.48656 -1.283544,3.68964 -0.449009,1.16525 -0.849487,2.35007 -1.264728,3.5283 -0.484345,1.32649 -1.076152,2.60361 -1.45219,3.96696 -0.268393,1.2687 -0.369647,2.55858 -0.615759,3.83239 -0.17741,1.11925 -0.313007,2.23813 -0.543916,3.34851 -0.230386,1.05815 -0.29757,2.13915 -0.338135,3.21817 -0.03798,1.34143 -0.04341,2.68343 -0.04022,4.0253 0,0 -7.39127,3.76686 -7.39127,3.76686 v 0 c 8.2e-4,-1.34436 -0.01781,-2.68877 -0.0028,-4.03305 0.02713,-1.11904 0.06782,-2.24227 0.274141,-3.34547 0.224333,-1.11397 0.455914,-2.20716 0.550044,-3.34245 0.253462,-1.29458 0.47571,-2.57586 0.620981,-3.88761 0.327846,-1.39792 0.846908,-2.7108 1.422046,-4.02384 0.391019,-1.20125 0.838748,-2.38207 1.225257,-3.58381 0.520711,-1.19717 0.944393,-2.39909 1.319218,-3.65134 0.481259,-1.22365 0.856465,-2.51419 0.986151,-3.82525 0.172292,-1.40403 0.459878,-2.80509 0.334832,-4.22568 0,0 7.450263,-3.7961 7.450263,-3.7961 z"
       inkscape:connector-curvature="0" />
    <path
       style="fill:#ff0000;stroke-width:0.26458332"
       id="path86"
       d="m 18.942218,184.43862 c 1.486835,-0.65386 2.935242,-1.41059 4.450546,-1.9974 1.201039,-0.63816 2.524941,-0.96407 3.785413,-1.44708 1.231596,-0.3836 2.354048,-1.02755 3.574801,-1.43894 1.03368,-0.27354 2.020673,-0.7592 2.951803,-1.28442 1.030232,-0.53567 2.173555,-0.68442 3.31425,-0.77235 1.132385,-0.0621 2.267106,-0.0519 3.400721,-0.0488 1.159733,0.20643 2.148078,0.87373 3.061835,1.58334 1.048272,0.70332 1.908204,1.63361 2.877757,2.43758 1.058201,0.82488 2.140336,1.57851 3.08275,2.54121 1.140307,1.0706 1.93012,2.41712 2.839956,3.67244 0.925742,1.29329 1.927495,2.51905 2.933723,3.74903 0.944023,0.94954 1.622058,2.03654 2.191235,3.23628 0.529095,1.09428 0.733419,2.28146 0.846971,3.47955 0.135022,1.23422 0.09865,2.40547 -0.338424,3.57214 -0.465399,1.1334 -1.244391,2.086 -2.013881,3.02468 -0.82972,0.71229 -1.390494,1.66558 -2.196904,2.39371 -3.090117,2.03379 -6.0886,4.54143 -9.717836,5.40251 -1.230056,0.23457 -2.487102,0.20177 -3.733165,0.21005 -1.730619,-0.004 -3.461171,-0.0133 -5.191845,-0.009 -1.398302,-0.12039 -2.76439,-0.36793 -4.067072,-0.89479 -0.289041,-0.42751 -2.035048,-0.91674 -2.240415,-1.24485 -0.145661,-0.23272 -0.212402,-0.50635 -0.3186,-0.75952 2.568247,-1.27904 5.069998,-2.70136 7.704746,-3.83712 0.205584,-0.0886 0.421166,0.15336 0.624739,0.24651 1.283973,0.5875 2.49732,1.35133 3.697404,2.08982 1.421368,0.91321 2.696922,1.99024 3.949245,3.1134 0.839848,0.86239 1.711846,1.702 2.526964,2.58963 0.919713,1.26963 1.183677,2.92349 1.527955,4.4278 0.588735,2.60556 1.041289,5.23866 1.709018,7.82582 0.514787,1.64064 0.944182,3.39171 1.817365,4.88987 0.453557,0.93173 1.193977,1.55028 2.047113,2.09738 1.035611,0.40352 2.085427,0.52566 3.136365,0.15367 2.597746,-1.9662 -0.187023,0.17694 -6.067861,3.34267 -0.180883,0.0974 0.309726,-0.27191 0.444106,-0.42728 0.470656,-0.5442 0.750503,-1.17293 1.025601,-1.82765 0.5113,-1.35758 0.511106,-2.81519 0.647338,-4.23918 0.09564,-0.79951 0.188095,-1.5993 0.274293,-2.39988 0,0 7.425278,-3.68176 7.425278,-3.68176 v 0 c -0.08948,0.80149 -0.185267,1.60214 -0.289957,2.40181 -0.164254,1.47515 -0.08146,2.98671 -0.534141,4.42034 -1.426591,4.25401 -4.655407,6.00165 -9.549633,7.44611 -1.232397,0.12899 -2.465096,-0.0732 -3.54961,-0.69954 -0.905018,-0.66829 -1.726676,-1.39595 -2.215274,-2.43702 -0.870085,-1.59587 -1.29412,-3.41276 -1.792034,-5.14829 -0.672039,-2.58514 -1.113089,-5.22069 -1.771457,-7.80925 -0.338428,-1.35049 -0.613132,-2.84987 -1.3991,-4.011 -0.812488,-0.86097 -1.643391,-1.70778 -2.480646,-2.54328 -1.17597,-1.1143 -2.43209,-2.12328 -3.781534,-3.02511 -0.919691,-0.55183 -1.84522,-1.11714 -2.827626,-1.55382 -3.405129,-1.51358 -4.807933,1.07341 5.546037,-4.48471 -0.150537,-0.22285 -0.327414,-0.43003 -0.451612,-0.66857 -0.02791,-0.0536 0.09976,0.0689 0.153631,0.0963 0.642202,0.32632 1.269904,0.67387 1.908061,1.00788 1.252061,0.40831 2.547167,0.64487 3.866523,0.68139 1.732319,0.0113 3.464636,0.017 5.196842,-0.0123 1.217576,-0.0294 2.457778,-0.0479 3.626729,-0.43039 0.310692,-0.12372 1.201578,-0.5849 0.912913,-0.41606 -11.990107,7.01301 -8.00445,4.79797 -5.561976,3.161 1.091917,-0.51127 1.394717,-1.47771 2.290062,-2.224 0.840523,-0.78983 1.565962,-1.7823 2.128318,-2.78115 0.567431,-1.02611 0.644756,-2.02536 0.514268,-3.1866 -0.07674,-1.10428 -0.215881,-2.20628 -0.696407,-3.21906 -0.543303,-1.14143 -1.172826,-2.17161 -2.081511,-3.07158 -1.002049,-1.24749 -1.961097,-2.52216 -2.908596,-3.81116 -0.898562,-1.21383 -1.71367,-2.49685 -2.821877,-3.53734 -0.938345,-0.92547 -2.03009,-1.63735 -3.045179,-2.47297 -0.954501,-0.79675 -1.811068,-1.71036 -2.853323,-2.39736 -0.831643,-0.58434 -1.725723,-1.13511 -2.776069,-1.13658 -1.116385,0.003 -2.236234,-0.001 -3.347291,0.12284 -1.101244,0.15883 -2.158995,0.44814 -3.128052,1.01489 -0.978235,0.46102 -1.962579,0.89821 -3.004158,1.19994 -1.183965,0.48907 -2.34592,1.03554 -3.570624,1.42105 -1.279279,0.42745 -2.530685,0.91984 -3.759325,1.47763 -1.497199,0.66167 -2.989196,1.33549 -4.472433,2.02792 0,0 6.542773,-5.17085 6.542773,-5.17085 z"
       inkscape:connector-curvature="0" />
    <path
       style="fill:#0000ff;stroke-width:0.26458332"
       id="path88"
       d="m 81.411301,186.85793 c -0.04575,1.5183 -0.04037,3.03797 -0.03491,4.55686 0.0071,1.33614 0.06759,2.66772 -0.114101,3.99429 -0.164145,1.15656 -0.550577,2.26084 -0.769091,3.40691 -0.183425,1.09399 -0.205748,2.20513 -0.222925,3.31155 -0.01011,1.12386 -0.005,2.24779 -0.0029,3.37168 0.0021,1.12611 0.0029,2.25221 0.0033,3.37832 0.08148,1.16024 -0.132848,2.29423 -0.311764,3.43335 -0.115594,1.05912 -0.20991,2.10695 -0.449723,3.14639 -0.188476,1.02965 -0.345771,2.0598 -0.565452,3.08421 -0.158131,1.12756 -0.436038,2.23087 -0.653894,3.34705 -0.144727,1.13315 -0.274854,2.26009 -0.488992,3.38319 -0.106521,1.037 -0.383987,2.03426 -0.623401,3.0442 -0.244498,1.15086 -0.260172,2.33243 -0.28272,3.50388 -0.01087,0.7894 -0.0093,1.5789 -0.0084,2.36835 0,0 -7.417954,3.7801 -7.417954,3.7801 v 0 c 1.43e-4,-0.79502 4.8e-5,-1.59007 0.0091,-2.38506 0.01794,-1.21216 0.02432,-2.43182 0.188031,-3.63454 0.191135,-1.02318 0.584944,-1.98738 0.647322,-3.03403 0.205459,-1.12496 0.430027,-2.2325 0.491201,-3.37836 0.187077,-1.12978 0.52314,-2.2233 0.64216,-3.36379 0.202263,-1.03142 0.445982,-2.04313 0.544229,-3.09228 0.228053,-1.03144 0.477436,-2.03192 0.492975,-3.09907 0.157318,-1.10672 0.451453,-2.19578 0.366035,-3.322 -2.65e-4,-1.12571 -7.94e-4,-2.25142 -0.0027,-3.37713 -0.0021,-1.1273 -0.0066,-2.25461 -0.0024,-3.38191 0.0096,-1.14442 0.02032,-2.2923 0.165849,-3.42929 0.175937,-1.15853 0.532244,-2.26059 0.779293,-3.39971 0.230741,-1.29268 0.226563,-2.58292 0.206478,-3.89578 0.0054,-1.50702 0.01132,-3.01487 -0.03491,-4.52129 0,0 7.450261,-3.79609 7.450261,-3.79609 z"
       inkscape:connector-curvature="0" />
    <path
       style="fill:#0000ff;stroke-width:0.26458332"
       id="path90"
       d="m 67.358124,186.84202 c 1.449094,-1.58538 3.030834,-3.0453 4.595389,-4.51533 1.187387,-1.11785 2.254179,-2.35349 3.296809,-3.60469 0.866548,-0.97969 1.547559,-2.09792 2.572332,-2.92429 4.310375,-2.49305 6.99193,-6.49218 10.456773,-2.89418 0.89219,1.16798 1.774335,2.34836 2.770126,3.43061 1.005041,1.28959 2.020761,2.58658 2.857736,3.99394 0.756705,1.3081 1.459941,2.65393 2.031171,4.05387 0.473869,1.3133 0.550924,2.72115 0.768853,4.09089 0.313444,1.72919 0.5417,3.47178 0.832136,5.20419 0.340148,1.80987 0.536834,3.63958 0.650872,5.47605 0.06606,1.15802 0.08474,2.31786 0.09555,3.47746 0,0 -7.409823,3.77883 -7.409823,3.77883 v 0 c 0.0026,-1.1537 0.0047,-2.30773 -0.03691,-3.46088 -0.08173,-1.81074 -0.238329,-3.6193 -0.586285,-5.40077 -0.305189,-1.72646 -0.522899,-3.46834 -0.876387,-5.18651 -0.226912,-1.31346 -0.299816,-2.65511 -0.689089,-3.93367 -0.525778,-1.37499 -1.22129,-2.67791 -1.955906,-3.9517 -0.78618,-1.37294 -1.776145,-2.62294 -2.788393,-3.8352 -0.966418,-1.08393 -1.800284,-2.27536 -2.743044,-3.38022 -0.492498,-0.42977 -1.105615,-0.91112 -1.815357,-0.77097 -0.157001,0.031 -0.587499,0.24901 -0.450172,0.16684 2.202275,-1.31772 4.434374,-2.58494 6.651561,-3.87741 -1.224275,0.59437 -1.860738,1.67223 -2.697501,2.69988 -1.070526,1.27273 -2.124184,2.56117 -3.321201,3.71837 -1.515531,1.44652 -3.082565,2.83833 -4.525081,4.36193 0,0 -7.684154,3.28296 -7.684154,3.28296 z"
       inkscape:connector-curvature="0" />
    <path
       style="fill:#0000ff;stroke-width:0.26458332"
       id="path92"
       d="m 96.240504,198.5517 c 3.118839,-2.0582 6.335976,-3.95123 9.363776,-6.14539 1.96943,-1.32093 3.70564,-2.92077 5.4718,-4.48928 0.9603,-1.00082 2.03681,-1.8777 2.98002,-2.89422 3.61802,-4.00967 0.9423,-1.6602 9.45864,-6.48322 0.20136,0.15191 0.43282,0.27054 0.60408,0.45572 1.26045,1.36289 1.28687,3.76023 1.45924,5.48284 0.35039,3.11586 0.0408,6.21316 -0.41992,9.29587 -0.48185,3.11432 -0.97744,6.22516 -1.30097,9.36055 -0.23777,3.45192 -0.56093,6.89578 -1.04753,10.32166 -0.36475,2.61054 -0.66605,5.22672 -1.06377,7.83265 -0.21635,1.31226 -0.32104,2.63699 -0.36681,3.9649 -0.0224,1.42314 -0.0476,2.84638 -0.0517,4.26971 0.001,0.30008 0.002,0.60015 0.003,0.90023 0,0 -7.35923,3.75106 -7.35923,3.75106 v 0 c 2.1e-4,-0.30075 5.3e-4,-0.60149 5.3e-4,-0.90223 -0.008,-1.42056 -0.0544,-2.84112 -0.0236,-4.26171 0.0382,-1.37336 0.13372,-2.74513 0.38762,-4.09792 0.46466,-2.61966 0.86725,-5.24349 1.20184,-7.88373 0.51407,-3.4079 0.88736,-6.83609 1.05379,-10.27973 0.27965,-3.15279 0.78975,-6.27581 1.28042,-9.40137 0.47215,-3.01068 0.83158,-6.04147 0.46731,-9.0888 -0.0888,-0.8599 -0.29056,-4.18456 -1.18101,-4.65537 -0.0759,-0.0401 -0.16721,0.0392 -0.25082,0.0587 2.25742,-1.34158 4.51485,-2.68315 6.77227,-4.02473 -0.12634,0.0969 -0.26415,0.18043 -0.37902,0.29067 -0.59236,0.56851 -0.8795,1.41513 -1.59825,1.87507 -0.14897,0.17417 -0.79774,0.93884 -0.95839,1.10205 -0.64684,0.65717 -1.46066,1.11598 -1.99547,1.89276 -1.85351,1.59934 -3.6184,3.30124 -5.67784,4.64738 -2.92622,2.17522 -6.03474,4.05811 -9.08671,6.04715 0,0 -7.743637,3.0587 -7.743637,3.0587 z"
       inkscape:connector-curvature="0" />
  </g>
</svg>
