<?xml version="1.0" encoding="UTF-8" standalone="no"?>
<!-- Created with Inkscape (http://www.inkscape.org/) -->

<svg
   xmlns:dc="http://purl.org/dc/elements/1.1/"
   xmlns:cc="http://creativecommons.org/ns#"
   xmlns:rdf="http://www.w3.org/1999/02/22-rdf-syntax-ns#"
   xmlns:svg="http://www.w3.org/2000/svg"
   xmlns="http://www.w3.org/2000/svg"
   xmlns:sodipodi="http://sodipodi.sourceforge.net/DTD/sodipodi-0.dtd"
   xmlns:inkscape="http://www.inkscape.org/namespaces/inkscape"
   width="210mm"
   height="297mm"
   viewBox="0 0 210 297"
   version="1.1"
   id="svg8"
   inkscape:version="0.92.2 (5c3e80d, 2017-08-06)"
   sodipodi:docname="logo.svg">
  <defs
     id="defs2" />
  <sodipodi:namedview
     id="base"
     pagecolor="#ffffff"
     bordercolor="#666666"
     borderopacity="1.0"
     inkscape:pageopacity="0.0"
     inkscape:pageshadow="2"
     inkscape:zoom="0.35"
     inkscape:cx="400"
     inkscape:cy="674.28571"
     inkscape:document-units="mm"
     inkscape:current-layer="layer1"
     showgrid="false"
     inkscape:window-width="1280"
     inkscape:window-height="737"
     inkscape:window-x="-8"
     inkscape:window-y="-8"
     inkscape:window-maximized="1" />
  <metadata
     id="metadata5">
    <rdf:RDF>
      <cc:Work
         rdf:about="">
        <dc:format>image/svg+xml</dc:format>
        <dc:type
           rdf:resource="http://purl.org/dc/dcmitype/StillImage" />
        <dc:title></dc:title>
      </cc:Work>
    </rdf:RDF>
  </metadata>
  <g
     inkscape:label="Capa 1"
     inkscape:groupmode="layer"
     id="layer1">
    <path
       style="fill:#ff0000;stroke-width:0.26458332"
       id="path26"
       d="m 30.749705,115.10139 c 0.256046,2.27996 0.43334,4.56689 0.563446,6.85721 0.09563,1.76424 0.118983,3.53107 0.129657,5.2975 -0.01781,1.50811 0.05434,3.01928 -0.04809,4.52475 -0.251198,1.29955 -0.48406,2.59512 -0.601122,3.91455 -0.02548,1.51468 -0.157957,3.00316 -0.414245,4.49534 -0.307525,1.65608 -0.379119,3.3402 -0.428295,5.0198 -0.03429,1.57516 -0.02941,3.15081 -0.02762,4.72624 0.0026,1.51331 0.0043,3.02662 0.0052,4.53993 -0.03473,2.19523 -0.04363,4.39087 -0.03402,6.58635 0.01241,1.82648 0.02429,3.65296 0.0304,5.47948 -0.09113,1.98651 -0.928346,3.84239 -1.626783,5.67843 -0.781306,2.0743 -1.557139,4.15048 -2.327903,6.22887 0,0 -10.096001,4.67988 -10.096001,4.67988 v 0 c 0.840967,-2.05246 1.608218,-4.14313 2.295253,-6.25168 0.789923,-1.66188 1.443068,-3.46034 1.798344,-5.26212 0.0061,-1.83684 0.01809,-3.67365 0.03045,-5.51046 0.0094,-2.18347 0.0011,-4.36711 -0.03544,-6.55031 -6.88e-4,-1.51355 -0.002,-3.0271 -0.0033,-4.54064 -4.5e-4,-1.58737 -0.0027,-3.1749 0.02885,-4.76203 0.04382,-1.72059 0.09018,-3.44945 0.342202,-5.15424 0.249209,-1.46367 0.518897,-2.89849 0.45066,-4.3941 0.08004,-1.33828 0.205196,-2.67678 0.563074,-3.97431 0.318105,-1.43255 0.04513,-2.93848 0.139512,-4.39643 0.0023,-1.76065 0.0051,-3.52172 -0.05048,-5.28172 -0.08537,-2.24776 -0.20474,-4.50176 -0.597512,-6.72046 0,0 9.913801,-5.22983 9.913801,-5.22983 z"
       inkscape:connector-curvature="0" />
    <path
       style="fill:#ff0000;stroke-width:0.26458332"
       id="path28"
       d="m 24.840795,104.94125 c -17.6420377,10.22314 -3.046636,1.5752 0.994559,-0.93605 4.791648,-3.23502 9.856696,-5.949612 14.866611,-8.861527 2.762456,-1.605624 -11.123263,6.292217 -8.307128,4.782717 3.591441,-1.925082 7.089264,-4.019939 10.633895,-6.029907 2.043686,-0.973952 3.933005,-2.24895 6.020093,-3.127036 1.864408,-0.750165 3.844613,-1.02185 5.835047,-1.143262 1.858508,-0.262641 3.336459,0.323286 4.862505,1.323663 1.672399,1.141431 2.98514,2.6583 4.272375,4.197098 1.264856,1.254998 2.452253,2.584151 3.417694,4.083299 1.219078,1.513425 2.123993,3.203875 2.688905,5.057855 0.575064,2.2292 0.553694,4.54345 0.586118,6.82795 -0.03059,2.51621 0.08724,5.0363 -0.04804,7.54992 -0.05752,1.86224 -0.597506,3.5164 -1.48358,5.13256 -0.922004,1.47919 -2.087896,2.7828 -3.079938,4.21713 -1.196731,1.65935 -2.385973,3.32455 -3.604056,4.96899 -1.152046,1.8033 -2.861561,3.11435 -4.344781,4.62688 -2.034929,1.89897 -3.866804,3.99104 -6.004917,5.77643 -5.329881,3.8156 -11.155162,6.89739 -16.86705,10.08965 15.875627,-9.58877 8.217569,-5.04079 5.023414,-2.0828 0,0 -10.358388,4.20256 -10.358388,4.20256 v 0 c 0.658345,-0.53009 1.199873,-1.16868 1.855846,-1.69831 3.664948,-2.95903 8.170833,-5.03728 12.094358,-7.37433 3.770236,-2.08121 2.574854,-1.43248 -7.071315,4.14673 -0.433713,0.25085 0.86205,-0.51096 1.289442,-0.77244 1.271926,-0.77816 2.549112,-1.55188 3.776993,-2.39852 2.221561,-1.67922 3.992597,-3.76591 6.057122,-5.62064 1.386065,-1.56177 3.042121,-2.82467 4.319781,-4.45913 1.163544,-1.68534 2.419331,-3.30114 3.649805,-4.93621 0.901118,-1.47191 1.915192,-2.84786 3.072786,-4.12823 0.855665,-1.52181 1.680017,-2.91302 1.720683,-4.72859 0.30956,-2.47134 0.07719,-4.98493 0.140031,-7.47017 -0.0274,-2.18077 -0.03714,-4.38793 -0.500539,-6.52877 -0.504327,-1.76624 -1.393441,-3.32625 -2.533949,-4.7664 -0.976413,-1.43908 -2.152576,-2.71431 -3.344971,-3.97745 -1.21944,-1.445943 -2.460151,-2.878813 -4.094921,-3.87743 -1.437109,-0.792694 -2.840392,-0.98244 -4.471943,-0.744688 -1.913752,0.195755 -3.799681,0.577141 -5.546759,1.418032 -2.00465,1.020357 -3.950288,2.154878 -5.97413,3.139216 2.78013,-1.62276 11.149454,-6.440412 8.340389,-4.868274 -5.211538,2.916722 -20.424283,11.895324 -2.41771,1.392643 0.442891,-0.258326 -0.910071,0.475265 -1.342575,0.750628 -0.464699,0.295862 -0.896628,0.640299 -1.344941,0.960448 -0.530553,0.332034 -1.061103,0.664067 -1.591656,0.996105 -6.533685,4.11929 -13.242335,7.96105 -19.929579,11.81947 0,0 8.744419,-6.92981 8.744419,-6.92981 z"
       inkscape:connector-curvature="0" />
    <path
       style="fill:#ff0000;stroke-width:0.26458332"
       id="path30"
       d="m 50.649565,142.21971 c 3.074768,1.60129 6.172803,3.15984 9.118989,4.99338 2.051296,1.02339 3.596841,2.52812 4.993238,4.30204 1.499055,1.89741 2.300496,4.08726 2.86735,6.40838 0.540676,2.8595 0.785,5.76992 1.102511,8.66275 0.266581,2.39282 0.39175,4.79869 0.468159,7.2042 0.04445,1.63299 0.04459,3.2667 0.04452,4.90016 -0.08433,1.38191 0.02403,2.71811 0.296294,4.06926 0.29477,1.06475 1.397204,1.42721 2.361158,1.72854 1.380103,0.30458 2.790044,0.56591 4.09784,-0.0698 -16.597252,9.24856 -9.050287,6.33943 -6.483789,2.44883 0.812728,-1.38323 1.655738,-2.74203 2.446234,-4.13874 0.851889,-1.73715 1.666269,-3.49765 2.396633,-5.29061 0.779735,-1.96516 1.203103,-4.03013 1.43012,-6.1241 0.07735,-0.8034 0.09825,-1.61019 0.119782,-2.41644 0,0 9.970876,-5.0512 9.970876,-5.0512 v 0 c -0.01667,0.83503 -0.03252,1.67054 -0.100613,2.50344 -0.205195,2.18581 -0.610015,4.34369 -1.358537,6.41509 -0.657905,1.84986 -1.494745,3.60541 -2.271835,5.40334 -0.760502,1.42329 -1.550058,2.80985 -2.431714,4.15507 -2.48104,4.94026 -7.537569,6.29607 -12.586329,8.93011 -1.52613,0.19825 -3.063301,-0.009 -4.518223,-0.51003 -1.302645,-0.55625 -2.53128,-1.24692 -2.955145,-2.69634 -0.289528,-1.42355 -0.504367,-2.81859 -0.378254,-4.28066 0.0048,-1.63251 0.01474,-3.26506 0.006,-4.89758 -0.02498,-2.39146 -0.09354,-4.78393 -0.335937,-7.16484 -0.30176,-2.84774 -0.581493,-5.70433 -1.044585,-8.52918 -0.52473,-2.16211 -1.312632,-4.18091 -2.696758,-5.95104 -1.329743,-1.64393 -2.842604,-3.00931 -4.705895,-4.04591 -2.902474,-1.86835 -5.960806,-3.47092 -9.170947,-4.74787 0,0 9.318894,-6.21027 9.318894,-6.21027 z"
       inkscape:connector-curvature="0" />
    <path
       style="fill:#0000ff;stroke-width:0.26458332"
       id="path36"
       d="m 111.68524,104.33558 c 0.54481,2.13816 0.92495,4.31021 1.17951,6.50053 0.31091,1.4682 0.65075,2.92225 0.82551,4.41468 0.14237,1.47937 0.14777,2.96712 0.15581,4.45191 0.003,1.5106 -10e-4,3.0212 -0.003,4.5318 0.0455,1.95588 -0.15215,3.90077 -0.5114,5.8209 -0.41635,1.58261 -0.72682,3.18148 -0.88777,4.80953 -0.14134,1.48659 -0.0686,2.98196 -0.17276,4.46953 -0.15206,1.37712 -0.66309,2.66779 -1.01107,3.99871 -0.33183,1.45833 -0.35023,2.95518 -0.6085,4.4254 -0.21708,1.5836 -0.60069,3.11827 -1.13802,4.62155 -0.62777,1.62381 -0.72946,3.36425 -0.96746,5.069 -0.21483,1.59818 -0.71687,3.1304 -1.08332,4.69474 -0.21377,1.51646 -0.55835,3.00769 -0.83648,4.51265 -0.25451,1.47207 -0.30387,2.96705 -0.33654,4.4572 -0.14142,1.56693 -0.40549,3.12788 -0.7874,4.65429 -0.41154,1.44728 -0.58035,2.93853 -0.67461,4.43487 0.0158,1.1872 -0.11287,2.34588 -0.34876,3.50628 0,0 -10.086779,4.88679 -10.086779,4.88679 v 0 c 0.229013,-1.12277 0.545156,-2.2056 0.44299,-3.36858 0.06877,-1.5585 0.184591,-3.12117 0.581046,-4.63661 0.386807,-1.45804 0.65932,-2.9256 0.898723,-4.41688 0.02093,-1.53914 0.05036,-3.08265 0.262911,-4.60975 0.240657,-1.52891 0.672092,-3.01402 0.817571,-4.55712 0.311226,-1.57208 0.864946,-3.07258 1.115528,-4.65708 0.356584,-1.73405 0.318185,-3.54277 0.876184,-5.24359 0.528507,-1.45665 1.067446,-2.89711 1.208186,-4.45674 0.2969,-1.48248 0.37266,-2.96787 0.57913,-4.46512 0.27465,-1.32924 0.78057,-2.57301 1.04654,-3.90138 0.31724,-1.44482 0.0363,-2.9608 0.21635,-4.42845 0.12685,-1.67742 0.36891,-3.34047 0.85449,-4.95618 0.47093,-1.81938 0.66327,-3.70975 0.58484,-5.58745 0.002,-1.50856 0.005,-3.01712 0.005,-4.52568 -0.004,-1.44931 -0.003,-2.90061 -0.11098,-4.34679 -0.14301,-1.50355 -0.4582,-2.97001 -0.77267,-4.44565 -0.19181,-2.10922 -0.4748,-4.22469 -1.14241,-6.24338 0,0 9.83022,-5.41393 9.83022,-5.41393 z"
       inkscape:connector-curvature="0" />
    <path
       style="fill:#0000ff;stroke-width:0.26458332"
       id="path46"
       d="m 110.203,93.711018 c 3.19194,-0.905968 6.35504,-1.947209 9.3612,-3.357449 2.05418,-1.07946 4.29141,-1.729483 6.3866,-2.710891 1.73038,-0.696357 3.3425,-1.591271 5.13915,-2.116815 2.70941,-0.351107 3.94599,1.916078 5.01293,4.022368 1.22948,2.857087 1.57773,5.956032 1.80711,9.026591 0.33088,2.068978 0.58753,4.137028 0.71558,6.228498 0.10499,2.27848 0.11758,4.56094 0.14174,6.84162 0.008,1.86535 0.006,3.73078 0.0116,5.59619 -0.0153,1.79216 -0.0394,3.5728 0.16824,5.35489 0.29771,2.06152 0.41095,4.13736 0.68999,6.20097 0.38111,2.5443 0.47059,5.11421 0.5624,7.68104 0.0676,1.95344 0.0899,3.90795 0.0993,5.86239 5.3e-4,0.26451 10e-4,0.52902 0.002,0.79353 0,0 -9.95935,5.07316 -9.95935,5.07316 v 0 c 0.001,-0.26511 0.002,-0.53022 0.004,-0.79533 0.0104,-1.95895 0.0273,-3.91807 -7.9e-4,-5.87697 -0.0531,-2.52601 -0.16233,-5.05451 -0.52979,-7.55756 -0.30561,-2.06348 -0.46723,-4.13413 -0.72395,-6.20392 -0.24167,-1.81908 -0.33233,-3.62879 -0.25813,-5.46547 0.009,-1.8689 0.0139,-3.73778 0.0183,-5.60667 0.0112,-2.26547 0.0156,-4.53165 -0.0952,-6.79518 -0.11938,-2.09543 -0.39538,-4.16799 -0.67117,-6.24747 -0.14597,-2.93264 -0.40052,-5.90449 -1.56807,-8.635715 -1.02695,-1.950188 -1.82693,-3.422822 -4.23854,-2.651749 -1.72747,0.648125 -3.35795,1.517972 -5.07547,2.193118 -2.0946,0.842118 -4.21069,1.633153 -6.24771,2.611598 -3.12607,1.30863 -6.35326,2.327283 -9.55598,3.427778 0,0 8.80444,-6.892552 8.80444,-6.892552 z"
       inkscape:connector-curvature="0" />
    <path
       style="fill:#0000ff;stroke-width:0.26458332"
       id="path64"
       d="m 133.54162,123.3712 c 1.31196,-1.77933 2.83205,-3.40347 4.01388,-5.27509 1.37217,-2.05521 2.38481,-4.29466 3.36516,-6.55471 1.27769,-3.22324 2.41462,-6.50806 3.50824,-9.7992 0.7802,-1.867044 0.99253,-3.705446 2.50249,-5.130949 11.58688,-6.571342 7.95932,-6.074503 16.3986,-5.032954 1.65893,0.286326 3.13219,0.939307 4.62767,1.666528 1.31056,0.880332 2.77093,1.314056 4.31585,1.53112 2.0231,0.108728 2.9028,0.134379 4.11814,1.899949 0.83519,1.647005 0.88172,3.535656 0.9508,5.344906 0.0388,1.60847 0.0205,3.21759 0.0116,4.82631 -0.0103,1.66752 -0.0244,3.33488 -0.0234,5.00246 0.003,1.60587 0.006,3.21174 0.008,4.81761 -0.001,1.54779 0.008,3.0956 -0.007,4.64333 0.10506,1.74577 -0.17177,3.46066 -0.41781,5.18064 -0.21818,1.51163 -0.27932,3.03823 -0.31512,4.56306 0.052,1.90284 -0.23695,3.78171 -0.46184,5.66476 -0.056,1.54142 -0.38449,3.03179 -0.69977,4.53317 -0.18979,1.34842 -0.33887,2.68443 -0.6485,4.01231 -0.46676,1.59199 -0.75764,3.23231 -1.29298,4.80262 -0.61912,1.51209 -1.37449,2.94749 -1.81293,4.52697 -0.27091,1.49813 -0.4235,3.00772 -0.70129,4.50661 -0.38949,1.4952 -0.79995,2.97327 -1.01498,4.50597 -0.0959,1.53313 -0.23083,3.04655 -0.49494,4.56059 -0.27037,1.50875 -0.3181,3.03929 -0.59367,4.54661 -0.27477,1.52918 -0.78268,2.9966 -1.07238,4.52299 -0.24833,1.69319 -0.60842,3.36449 -0.82473,5.06284 -0.0266,0.27062 -0.0531,0.54123 -0.0797,0.81185 0,0 -9.99762,4.98085 -9.99762,4.98085 v 0 c 0.0234,-0.28077 0.0467,-0.56155 0.07,-0.84232 0.19075,-1.71513 0.54568,-3.39859 0.78441,-5.10423 0.23308,-1.55239 0.69951,-3.02915 1.06079,-4.54844 0.31203,-1.50023 0.41178,-3.00466 0.60358,-4.52483 0.25786,-1.50203 0.52796,-2.97794 0.51818,-4.51069 0.16514,-1.55515 0.45105,-3.08891 0.98812,-4.56364 0.26888,-1.52227 0.5503,-3.02422 0.67476,-4.56746 0.35077,-1.65764 1.00759,-3.15982 1.75912,-4.67102 0.67258,-1.47677 0.82366,-3.08329 1.35448,-4.61257 0.22798,-1.33903 0.62454,-2.62556 0.64459,-4.00062 0.26497,-1.50171 0.77915,-2.94385 0.78478,-4.48577 0.22038,-1.84501 0.57818,-3.6827 0.47705,-5.54858 0.0251,-1.56517 0.0658,-3.1331 0.26603,-4.68762 0.22976,-1.67846 0.62457,-3.33883 0.49285,-5.04451 -0.0151,-1.54541 -0.006,-3.0909 -0.007,-4.63636 0.002,-1.60916 0.005,-3.21832 0.009,-4.82748 0.004,-1.66631 -0.008,-3.33253 0.003,-4.99879 0.0115,-1.60033 0.0348,-3.20067 0.0252,-4.80105 -0.0304,-1.59194 5.3e-4,-3.27474 -0.66175,-4.75349 -0.87388,-1.17651 -2.3162,-0.94037 -3.64102,-1.17544 -1.59594,-0.34708 -3.07713,-0.94901 -4.48317,-1.786187 -1.39272,-0.671676 -2.85129,-1.145246 -4.38106,-1.400432 -1.46506,-0.200046 -2.99488,-0.520835 -4.47957,-0.452731 -3.70869,0.170119 -7.90834,4.22463 7.55417,-5.024461 -0.38464,0.184155 -1.10699,0.471442 -1.39266,0.832665 -0.80043,1.012134 -0.65341,2.672265 -1.4918,3.690112 -1.13059,3.314384 -2.38525,6.587364 -3.5305,9.896154 -0.91303,2.26739 -1.75772,4.60914 -3.17066,6.62294 -1.0564,1.98418 -2.65588,3.52056 -3.8742,5.39715 0,0 -10.31872,4.40855 -10.31872,4.40855 z"
       inkscape:connector-curvature="0" />
  </g>
</svg>
